<svg width="14" height="9" viewBox="0 0 14 9" fill="none" xmlns="http://www.w3.org/2000/svg">
<path d="M6.19948 0.899902C6.69948 0.399902 7.59948 0.399902 8.09948 0.899902L13.1995 5.7999C13.6995 6.2999 13.6995 7.1999 13.1995 7.6999C12.6995 8.1999 11.7995 8.1999 11.2995 7.6999L6.19948 2.7999C5.69948 2.2999 5.59948 1.4999 6.19948 0.899902Z" fill="white"/>
<path d="M8.0998 0.899902C8.5998 1.3999 8.5998 2.2999 8.0998 2.7999L3.1998 7.8999C2.6998 8.3999 1.7998 8.3999 1.2998 7.8999C0.799805 7.3999 0.799805 6.4999 1.2998 5.9999L6.1998 0.899902C6.6998 0.399902 7.4998 0.399902 8.0998 0.899902Z" fill="white"/>
</svg>
